<?xml version="1.0" encoding="UTF-8"?>
<!-- Generated by Pixelmator Pro 3.2.3 -->
<svg width="183" height="183" viewBox="0 0 183 183" xmlns="http://www.w3.org/2000/svg" xmlns:xlink="http://www.w3.org/1999/xlink">
    <path id="path1" fill="#a6a6a6" stroke="none" d="M 162.897308 123.558037 L 148.522324 151.325897 C 148.5 151.348206 148.5 151.392853 148.477676 151.415176 C 145.821426 156.526794 141.513397 160.566971 136.290192 163 C 122.607132 169.40625 107.116074 172.84375 91 172.84375 C 74.883926 172.84375 59.392853 169.428574 45.709824 163 C 40.50893 160.544647 36.17857 156.504471 33.52232 151.415176 C 33.5 151.392853 33.5 151.348206 33.47768 151.325897 L 19.102678 123.558037 L 162.897308 123.558037 Z"/>
    <path id="path2" fill="#cfcfcf" stroke="none" d="M 153.276779 123.558037 L 140.821426 150.589279 C 140.799103 150.611603 140.799103 150.65625 140.776779 150.678574 C 138.477676 155.65625 134.727692 159.584824 130.21875 161.973221 C 118.388397 168.223221 104.950897 171.571426 91 171.571426 C 77.04911 171.571426 63.611603 168.245529 51.781254 161.995529 C 47.272324 159.607147 43.54464 155.678574 41.223213 150.700897 C 41.20089 150.678574 41.20089 150.633926 41.17857 150.611603 L 28.723213 123.558037 L 153.276779 123.558037 Z"/>
    <path id="path3" fill="#fafafa" stroke="none" d="M 91 156.772324 C 67.36161 156.772324 45.01786 149.696426 28.120537 136.861603 C 19.61607 130.388397 12.875 122.799103 8.120535 114.25 C 2.986608 105.031242 0.375 95.1875 0.375 84.964287 C 0.375 74.741074 2.986608 64.875 8.120535 55.65625 C 12.875 47.107147 19.61607 39.517853 28.120537 33.044647 C 45.01786 20.209824 67.36161 13.133926 91 13.133926 C 114.63839 13.133926 136.982147 20.209824 153.879471 33.044647 C 162.383926 39.517853 169.125 47.107147 173.879456 55.65625 C 179.013397 64.875 181.625 74.71875 181.625 84.964287 C 181.625 95.1875 179.013397 105.053574 173.879456 114.272324 C 169.125 122.821434 162.383926 130.410706 153.879471 136.883926 C 136.982147 149.696426 114.63839 156.772324 91 156.772324 Z"/>
    <path id="path4" fill="#ffb74d" stroke="none" d="M 91 149.339294 C 68.34375 149.339294 46.9375 142.642853 30.732143 130.477692 C 22.562502 124.339287 16.111607 117.129463 11.558035 109.026779 C 6.647322 100.299103 4.147322 90.946426 4.147322 81.236603 C 4.147322 71.526779 6.625 62.196426 11.558035 53.446426 C 16.111607 45.34375 22.562502 38.133926 30.732143 31.995544 C 46.9375 19.830353 68.34375 13.133926 91 13.133926 C 113.65625 13.133926 135.0625 19.830353 151.267853 31.995544 C 159.4375 38.133926 165.888397 45.34375 170.441971 53.446426 C 175.352692 62.174103 177.852676 71.526779 177.852676 81.236603 C 177.852676 90.92411 175.352692 100.276787 170.441971 109.026779 C 165.888397 117.129463 159.4375 124.339287 151.267853 130.477692 C 135.0625 142.620529 113.65625 149.339294 91 149.339294 Z"/>
    <path id="path5" fill="#ff9e00" stroke="none" d="M 12.875 79.116066 C 12.875 100.264923 27.765541 119.807259 51.9375 130.381683 C 76.109459 140.956116 105.890541 140.956116 130.0625 130.381683 C 154.234467 119.807259 169.125 100.264923 169.125 79.116066 C 169.125 57.967224 154.234467 38.424881 130.0625 27.850464 C 105.890541 17.276031 76.109459 17.276031 51.9375 27.850464 C 27.765541 38.424881 12.875 57.967224 12.875 79.116066 Z"/>
    <path id="path6" fill="#ffcd40" stroke="none" d="M 17.629463 77.0625 C 17.629463 96.600464 31.613808 114.654282 54.314732 124.423256 C 77.015656 134.192245 104.984344 134.192245 127.685257 124.423256 C 150.3862 114.654282 164.370544 96.600464 164.370544 77.0625 C 164.370544 57.524536 150.3862 39.470718 127.685257 29.701736 C 104.984344 19.932755 77.015656 19.932755 54.314732 29.701736 C 31.613808 39.470718 17.629463 57.524536 17.629463 77.0625 Z"/>
    <path id="path7" fill="#572f05" stroke="none" d="M 124.415176 101.325897 C 115.821426 106.794647 110.196426 106.102676 109.928574 108.714287 C 109.616066 111.839287 117.339279 116.325897 124.839279 116.392853 C 125.754471 116.392853 137.5625 116.348213 140.553574 108.223221 C 142.696426 102.419647 139.482147 94.71875 135.575897 93.870537 C 132.674103 93.245537 131.379471 96.883934 124.415176 101.325897 Z M 46.022324 111.504463 C 47.941963 114.183037 49.90625 116.973213 53.522324 117.665176 C 57.941963 118.513397 63.477684 116.169647 64.013397 112.933029 C 64.459824 110.142853 61.066963 107.598213 58.232147 105.5 C 53.1875 101.705353 44.683037 97.84375 42.45089 100.38839 C 40.41964 102.620537 44.30357 109.071426 46.022324 111.504463 Z"/>
    <path id="path8" fill="#25467a" stroke="none" d="M 91 85.477676 C 84.102676 85.477676 78.5 79.875 78.5 72.977676 C 78.5 71.59375 79.616074 70.477676 81 70.477676 C 82.383926 70.477676 83.5 71.59375 83.5 72.977676 C 83.5 77.129463 86.848213 80.477676 91 80.477676 C 95.151787 80.477676 98.500008 77.129463 98.500008 72.977676 C 98.500008 71.59375 99.616066 70.477676 101 70.477676 C 102.383926 70.477676 103.5 71.59375 103.5 72.977676 C 103.5 79.875 97.897316 85.477676 91 85.477676 Z M 58.5 52.977676 C 58.5 57.129471 61.848213 60.477676 66 60.477676 C 70.151787 60.477676 73.5 57.129471 73.5 52.977676 C 73.5 48.825897 70.151787 45.477676 66 45.477676 C 61.870537 45.477676 58.5 48.825897 58.5 52.977676 Z M 108.499992 52.977676 C 108.499992 57.129471 111.848213 60.477676 116 60.477676 C 120.151779 60.477676 123.5 57.129471 123.5 52.977676 C 123.5 48.825897 120.151779 45.477676 116 45.477676 C 111.870529 45.477676 108.499992 48.825897 108.499992 52.977676 Z"/>
    <path id="path9" fill="#fdefba" stroke="none" d="M 56 65.477684 L 46 65.477684 C 43.23214 65.477684 41 67.709824 41 70.477676 C 41 73.245537 43.23214 75.477676 46 75.477676 L 56 75.477676 C 58.76786 75.477676 61 73.245537 61 70.477676 C 61 67.709824 58.76786 65.477684 56 65.477684 Z M 136 65.477684 L 126 65.477684 C 123.232147 65.477684 121 67.709824 121 70.477676 C 121 73.245537 123.232147 75.477676 126 75.477676 L 136 75.477676 C 138.767853 75.477676 141 73.245537 141 70.477676 C 141 67.709824 138.767853 65.477684 136 65.477684 Z"/>
</svg>
